<svg xmlns="http://www.w3.org/2000/svg" viewBox="0 0 24 24">
	<polygon style="fill: #da513d;" points="12.5 20.5 2.5 20.5 2.5 6.5 12.5 6.5 12.5 13.5 13.5 13.5 13.5 5.5 1.5 5.5 1.5 21.5 13.5 21.5 13.5 16.5 12.5 16.5 12.5 20.5"/>
	<polygon style="fill: #da513d;" points="8.354 11.354 9.5 10.207 10.646 11.354 11.354 10.646 10.207 9.5 11.354 8.354 10.646 7.646 9.5 8.793 8.354 7.646 7.646 8.354 8.793 9.5 7.646 10.646 8.354 11.354"/>
	<polygon style="fill: #da513d;" points="20.354 5.354 19.646 4.646 17 7.293 16.354 6.646 15.646 7.354 17 8.707 20.354 5.354"/>
	<polygon style="fill: #da513d;" points="8 14.5 8 15.5 15.207 15.5 18.5 12.207 18.5 14 19.5 14 19.5 10.5 16 10.5 16 11.5 17.793 11.5 14.793 14.5 8 14.5"/>
	<polygon style="fill: #da513d;" points="10.5 2.5 10.5 4.5 11.5 4.5 11.5 3.5 21.5 3.5 21.5 17.5 14.5 17.5 14.5 18.5 22.5 18.5 22.5 2.5 10.5 2.5"/>
</svg>
